<?xml version="1.0" encoding="utf-8"?>
<!-- Generator: Adobe Illustrator 16.0.0, SVG Export Plug-In . SVG Version: 6.00 Build 0)  -->
<!DOCTYPE svg PUBLIC "-//W3C//DTD SVG 1.1//EN" "http://www.w3.org/Graphics/SVG/1.1/DTD/svg11.dtd">
<svg version="1.1" id="Слой_1" xmlns="http://www.w3.org/2000/svg" xmlns:xlink="http://www.w3.org/1999/xlink" x="0px" y="0px"
	 width="367.987px" height="358.063px" viewBox="389.505 29.661 367.987 358.063"
	 enable-background="new 389.505 29.661 367.987 358.063" xml:space="preserve">
<g>
	<defs>
		<rect id="SVGID_1_" x="-357.562" y="-28" width="1138.785" height="534"/>
	</defs>
	<clipPath id="SVGID_2_">
		<use xlink:href="#SVGID_1_"  overflow="visible"/>
	</clipPath>
	<path clip-path="url(#SVGID_2_)" fill="#FFF200" d="M753.052,250.729c-41.545,0-83.127,0-124.672-0.035l11.958-18.392
		c27.189-0.036,54.377-0.036,81.528-0.036c7.306,0,7.306,0,4.726-6.07c-19.047-44.853-38.093-89.67-57.14-134.523
		c-3.198-7.56-6.578-15.011-9.558-22.681c-1.199-3.089-1.893-3.089-4.108-0.036c-13.813,19.083-27.806,38.092-41.689,57.211
		c-20.102,27.625-40.129,55.357-60.229,83.019c-8.396,11.521-16.938,22.972-25.188,34.603c-1.345,1.854-2.436,2.363-4.289,2.363
		c-5.815-0.037-11.667,0-18.571,0c8.977-12.358,17.337-23.88,25.695-35.367c26.935-37.146,53.831-74.33,80.803-111.441
		c16.354-22.5,32.855-44.89,49.141-67.425c2.437-3.381,2.799-2.653,3.998,0.146c19.846,46.961,39.766,93.886,59.72,140.773
		c10.322,24.281,20.719,48.488,31.077,72.732C758.323,250.403,758.143,250.729,753.052,250.729"/>
</g>
<g>
	<defs>
		<rect id="SVGID_3_" x="-357.562" y="-28" width="1138.785" height="534"/>
	</defs>
	<clipPath id="SVGID_4_">
		<use xlink:href="#SVGID_3_"  overflow="visible"/>
	</clipPath>
	<path clip-path="url(#SVGID_4_)" fill="#29B76C" d="M636.849,177.018c-51.214,70.514-101.771,140.119-153.021,210.707
		c-31.55-74.186-62.811-147.682-94.322-221.792H527.48c-4.072,5.634-7.962,10.686-11.486,15.92
		c-1.818,2.689-3.962,2.145-6.107,2.145c-28.388,0.036-56.737,0-85.09,0.072c-1.744,0.037-3.962-1.09-5.306,0.946
		c-1.163,1.708,0.688,3.016,1.308,4.434c15.559,36.893,31.188,73.713,46.816,110.568c6.687,15.666,13.594,31.223,20.1,46.998
		c1.527,3.707,2.581,2.58,4.543-0.146c17.592-24.244,35.258-48.488,52.887-72.73c22.861-31.516,45.979-62.846,68.369-94.648
		c0.618-0.873,1.273-1.709,1.892-2.472L636.849,177.018L636.849,177.018z"/>
</g>
</svg>
