<?xml version="1.0" encoding="utf-8"?>
<!-- Generator: Adobe Illustrator 16.0.0, SVG Export Plug-In . SVG Version: 6.00 Build 0)  -->
<!DOCTYPE svg PUBLIC "-//W3C//DTD SVG 1.1//EN" "http://www.w3.org/Graphics/SVG/1.1/DTD/svg11.dtd">
<svg version="1.1" id="Слой_1" xmlns="http://www.w3.org/2000/svg" xmlns:xlink="http://www.w3.org/1999/xlink" x="0px" y="0px"
	 width="1091.638px" height="418.672px" viewBox="0 -2.395 1091.638 418.672" enable-background="new 0 -2.395 1091.638 418.672"
	 xml:space="preserve">
<polygon fill="#33CBE3" points="106.074,335.305 22.345,137.491 0,137.491 91.487,352 118.469,352 209.534,137.491 187.696,137.491 
	"/>
<rect x="253.549" y="137.491" fill="#33CBE3" width="21.418" height="214.509"/>
<polygon fill="#33CBE3" points="506.762,137.491 425.057,335.305 341.411,137.491 319.066,137.491 410.554,352 437.536,352 
	528.602,137.491 "/>
<path fill="#33CBE3" d="M642.096,137.491h-26.981L524.048,352h21.838l28.56-69.731h106.605L709.805,352h23.861L642.096,137.491z
	 M581.007,266.247l46.587-113.748l46.881,113.748H581.007z"/>
<g>
	<g>
		<defs>
			<rect id="SVGID_1_" x="-23.392" y="-60.062" width="1138.785" height="534.001"/>
		</defs>
		<clipPath id="SVGID_2_">
			<use xlink:href="#SVGID_1_"  overflow="visible"/>
		</clipPath>
		<path clip-path="url(#SVGID_2_)" fill="#29B76C" d="M86.684,398.789c0-9.719,7.641-17.422,17.354-17.422
			c5.628,0,10.137,2.359,13.259,6.456c0.415,0.554,0.482,0.899,0.482,1.314c0,0.833-0.761,1.527-1.59,1.527
			c-0.423,0-0.905-0.141-1.32-0.694c-2.707-3.401-6.109-5.343-10.831-5.343c-7.776,0-13.741,6.177-13.741,14.16
			c0,7.979,5.898,14.228,13.674,14.228c4.789,0,8.123-1.94,10.831-5.344c0.482-0.559,0.896-0.693,1.32-0.693
			c0.896,0,1.657,0.693,1.657,1.527c0,0.414-0.135,0.762-0.549,1.315c-3.199,4.095-7.564,6.455-13.259,6.455
			C94.325,416.278,86.684,408.507,86.684,398.789"/>
	</g>
	<g>
		<defs>
			<rect id="SVGID_3_" x="-23.392" y="-60.062" width="1138.785" height="534.001"/>
		</defs>
		<clipPath id="SVGID_4_">
			<use xlink:href="#SVGID_3_"  overflow="visible"/>
		</clipPath>
		<path clip-path="url(#SVGID_4_)" fill="#29B76C" d="M138.901,414.544V385.25h-11.11c-0.896,0-1.667-0.693-1.667-1.596
			c0-0.899,0.771-1.595,1.667-1.595h25.68c0.906,0,1.667,0.694,1.667,1.595c0,0.901-0.761,1.596-1.667,1.596H142.37v29.294
			c0,0.973-0.761,1.733-1.734,1.733C139.662,416.278,138.901,415.517,138.901,414.544"/>
	</g>
	<g>
		<defs>
			<rect id="SVGID_5_" x="-23.392" y="-60.062" width="1138.785" height="534.001"/>
		</defs>
		<clipPath id="SVGID_6_">
			<use xlink:href="#SVGID_5_"  overflow="visible"/>
		</clipPath>
		<path clip-path="url(#SVGID_6_)" fill="#29B76C" d="M198.471,398.789c0,9.785-7.708,17.488-17.422,17.488
			c-9.645,0-17.287-7.703-17.287-17.488c0-9.857,7.642-17.422,17.355-17.422C190.763,381.367,198.471,388.999,198.471,398.789
			 M167.376,398.856c0,8.052,5.897,14.16,13.673,14.16c7.777,0,13.809-6.177,13.809-14.16c0-8.118-6.032-14.228-13.741-14.228
			C173.273,384.629,167.376,390.738,167.376,398.856"/>
	</g>
	<g>
		<defs>
			<rect id="SVGID_7_" x="-23.392" y="-60.062" width="1138.785" height="534.001"/>
		</defs>
		<clipPath id="SVGID_8_">
			<use xlink:href="#SVGID_7_"  overflow="visible"/>
		</clipPath>
		<path clip-path="url(#SVGID_8_)" fill="#29B76C" d="M212.713,414.404v-31.162c0-1.113,0.838-1.874,1.802-1.874
			c0.559,0,0.973,0.207,1.32,0.62l14.3,19.161l14.232-19.161c0.347-0.413,0.829-0.62,1.321-0.62c1.04,0,1.801,0.761,1.801,1.874
			v31.162c0,1.112-0.761,1.874-1.801,1.874c-0.974,0-1.735-0.762-1.735-1.874v-25.96l-12.363,16.242
			c-0.347,0.486-0.829,0.833-1.455,0.833c-0.627,0-1.108-0.347-1.523-0.833l-12.362-16.242v25.96c0,1.112-0.762,1.874-1.735,1.874
			C213.551,416.278,212.713,415.517,212.713,414.404"/>
	</g>
	<g>
		<defs>
			<rect id="SVGID_9_" x="-23.392" y="-60.062" width="1138.785" height="534.001"/>
		</defs>
		<clipPath id="SVGID_10_">
			<use xlink:href="#SVGID_9_"  overflow="visible"/>
		</clipPath>
		<path clip-path="url(#SVGID_10_)" fill="#29B76C" d="M288.115,394.554v19.99c0,0.973-0.771,1.733-1.744,1.733
			c-0.964,0-1.802-0.762-1.802-1.733v-3.956c-2.428,3.537-6.659,5.689-11.794,5.689c-6.871,0-11.525-3.676-11.525-9.092
			c0-5.481,4.577-8.957,11.659-8.957h11.66v-3.814c0-6.179-3.401-9.785-9.231-9.785c-3.537,0-6.524,1.455-9.232,4.51
			c-0.481,0.486-0.896,0.693-1.455,0.693c-0.838,0-1.599-0.693-1.599-1.455c0-0.486,0.212-0.975,0.761-1.601
			c3.054-3.607,7.082-5.409,11.736-5.409C283.393,381.367,288.115,386.296,288.115,394.554 M284.569,403.091v-1.874h-11.313
			c-5.415,0-8.393,2.149-8.393,5.897c0,3.681,3.257,6.108,8.258,6.108C279.5,413.224,284.569,408.714,284.569,403.091"/>
	</g>
	<g>
		<defs>
			<rect id="SVGID_11_" x="-23.392" y="-60.062" width="1138.785" height="534.001"/>
		</defs>
		<clipPath id="SVGID_12_">
			<use xlink:href="#SVGID_11_"  overflow="visible"/>
		</clipPath>
		<path clip-path="url(#SVGID_12_)" fill="#29B76C" d="M310.76,414.544V385.25H299.65c-0.896,0-1.667-0.693-1.667-1.596
			c0-0.899,0.771-1.595,1.667-1.595h25.689c0.896,0,1.657,0.694,1.657,1.595c0,0.901-0.761,1.596-1.657,1.596h-11.11v29.294
			c0,0.973-0.762,1.733-1.734,1.733C311.521,416.278,310.76,415.517,310.76,414.544"/>
	</g>
	<g>
		<defs>
			<rect id="SVGID_13_" x="-23.392" y="-60.062" width="1138.785" height="534.001"/>
		</defs>
		<clipPath id="SVGID_14_">
			<use xlink:href="#SVGID_13_"  overflow="visible"/>
		</clipPath>
		<path clip-path="url(#SVGID_14_)" fill="#29B76C" d="M370.33,398.789c0,9.785-7.709,17.488-17.423,17.488
			c-9.646,0-17.286-7.703-17.286-17.488c0-9.857,7.641-17.422,17.354-17.422C362.621,381.367,370.33,388.999,370.33,398.789
			 M339.234,398.856c0,8.052,5.896,14.16,13.673,14.16s13.809-6.177,13.809-14.16c0-8.118-6.032-14.228-13.741-14.228
			C345.131,384.629,339.234,390.738,339.234,398.856"/>
	</g>
	<g>
		<defs>
			<rect id="SVGID_15_" x="-23.392" y="-60.062" width="1138.785" height="534.001"/>
		</defs>
		<clipPath id="SVGID_16_">
			<use xlink:href="#SVGID_15_"  overflow="visible"/>
		</clipPath>
		<path clip-path="url(#SVGID_16_)" fill="#29B76C" d="M408.797,383.935v30.47c0,1.112-0.761,1.874-1.734,1.874
			s-1.734-0.762-1.734-1.874V385.25h-13.539v3.193c0,15.273-3.257,23.807-10.407,27.141c-0.558,0.279-1.106,0.415-1.599,0.415
			c-0.974,0-1.667-0.694-1.667-1.596c0-0.762,0.492-1.319,1.388-1.733c6.041-2.501,8.816-10.412,8.816-25.82v-2.915
			c0-1.04,0.762-1.874,1.879-1.874h16.728C407.968,382.061,408.797,382.895,408.797,383.935"/>
	</g>
	<g>
		<defs>
			<rect id="SVGID_17_" x="-23.392" y="-60.062" width="1138.785" height="534.001"/>
		</defs>
		<clipPath id="SVGID_18_">
			<use xlink:href="#SVGID_17_"  overflow="visible"/>
		</clipPath>
		<path clip-path="url(#SVGID_18_)" fill="#29B76C" d="M457.748,398.789c0,9.785-7.709,17.488-17.422,17.488
			c-9.646,0-17.287-7.703-17.287-17.488c0-9.857,7.641-17.422,17.354-17.422C450.039,381.367,457.748,388.999,457.748,398.789
			 M426.652,398.856c0,8.052,5.896,14.16,13.674,14.16c7.775,0,13.808-6.177,13.808-14.16c0-8.118-6.032-14.228-13.741-14.228
			C432.549,384.629,426.652,390.738,426.652,398.856"/>
	</g>
	<g>
		<defs>
			<rect id="SVGID_19_" x="-23.392" y="-60.062" width="1138.785" height="534.001"/>
		</defs>
		<clipPath id="SVGID_20_">
			<use xlink:href="#SVGID_19_"  overflow="visible"/>
		</clipPath>
		<path clip-path="url(#SVGID_20_)" fill="#29B76C" d="M472,414.544v-30.683c0-0.968,0.838-1.802,1.802-1.802h19.368
			c0.906,0,1.667,0.694,1.667,1.595c0,0.901-0.761,1.596-1.667,1.596h-17.633v29.294c0,0.973-0.762,1.733-1.735,1.733
			C472.837,416.278,472,415.517,472,414.544"/>
	</g>
	<g>
		<defs>
			<rect id="SVGID_21_" x="-23.392" y="-60.062" width="1138.785" height="534.001"/>
		</defs>
		<clipPath id="SVGID_22_">
			<use xlink:href="#SVGID_21_"  overflow="visible"/>
		</clipPath>
		<path clip-path="url(#SVGID_22_)" fill="#29B76C" d="M533.092,383.241v31.162c0,1.112-0.761,1.874-1.733,1.874
			c-0.975,0-1.735-0.762-1.735-1.874v-26.307l-20.544,27.206c-0.56,0.695-0.973,0.975-1.599,0.975c-0.897,0-1.735-0.762-1.735-1.874
			v-31.162c0-1.113,0.838-1.874,1.802-1.874c0.973,0,1.734,0.761,1.734,1.874v26.58l20.477-27.486
			c0.56-0.693,1.041-0.968,1.601-0.968C532.331,381.367,533.092,382.128,533.092,383.241"/>
	</g>
	<g>
		<defs>
			<rect id="SVGID_23_" x="-23.392" y="-60.062" width="1138.785" height="534.001"/>
		</defs>
		<clipPath id="SVGID_24_">
			<use xlink:href="#SVGID_23_"  overflow="visible"/>
		</clipPath>
		<path clip-path="url(#SVGID_24_)" fill="#29B76C" d="M573.708,383.102v31.442c0,0.973-0.762,1.733-1.734,1.733
			c-0.972,0-1.734-0.762-1.734-1.733v-12.493c-2.496,1.04-5.552,1.667-8.537,1.667c-9.02,0-14.3-5.416-14.3-14.646v-5.97
			c0-1.041,0.771-1.733,1.734-1.733c0.973,0,1.744,0.761,1.744,1.733v5.897c0,7.496,3.737,11.385,10.966,11.385
			c2.978,0,6.107-0.627,8.393-1.667v-15.615c0-0.974,0.763-1.733,1.734-1.733C572.946,381.368,573.708,382.128,573.708,383.102"/>
	</g>
	<g>
		<defs>
			<rect id="SVGID_25_" x="-23.392" y="-60.062" width="1138.785" height="534.001"/>
		</defs>
		<clipPath id="SVGID_26_">
			<use xlink:href="#SVGID_25_"  overflow="visible"/>
		</clipPath>
		<path clip-path="url(#SVGID_26_)" fill="#29B76C" d="M619.961,396.567v0.834c0,1.455-0.694,2.288-2.148,2.288H591.64
			c0.415,7.704,6.11,13.326,13.81,13.326c3.893,0,7.642-1.594,10.205-4.302c0.491-0.486,0.839-0.693,1.318-0.693
			c0.906,0,1.532,0.693,1.532,1.596c0,0.554-0.211,0.973-0.837,1.595c-3.334,3.334-7.497,5.067-12.22,5.067
			c-9.849,0-17.422-7.638-17.422-17.422c0-9.856,7.431-17.488,16.807-17.488C613.639,381.367,619.961,387.751,619.961,396.567
			 M591.774,396.495h24.641c0.077-6.87-4.646-11.938-11.582-11.938C598.028,384.557,592.749,389.625,591.774,396.495"/>
	</g>
	<g>
		<defs>
			<rect id="SVGID_27_" x="-23.392" y="-60.062" width="1138.785" height="534.001"/>
		</defs>
		<clipPath id="SVGID_28_">
			<use xlink:href="#SVGID_27_"  overflow="visible"/>
		</clipPath>
		<path clip-path="url(#SVGID_28_)" fill="#29B76C" d="M631.215,398.789c0-9.719,7.644-17.422,17.354-17.422
			c5.628,0,10.138,2.359,13.26,6.456c0.414,0.554,0.481,0.899,0.481,1.314c0,0.833-0.763,1.527-1.59,1.527
			c-0.425,0-0.905-0.141-1.319-0.694c-2.708-3.401-6.11-5.343-10.832-5.343c-7.776,0-13.741,6.177-13.741,14.16
			c0,7.979,5.897,14.228,13.674,14.228c4.789,0,8.123-1.94,10.831-5.344c0.482-0.559,0.897-0.693,1.32-0.693
			c0.896,0,1.657,0.693,1.657,1.527c0,0.414-0.135,0.762-0.549,1.315c-3.198,4.095-7.564,6.455-13.261,6.455
			C638.857,416.278,631.215,408.507,631.215,398.789"/>
	</g>
	<g>
		<defs>
			<rect id="SVGID_29_" x="-23.392" y="-60.062" width="1138.785" height="534.001"/>
		</defs>
		<clipPath id="SVGID_30_">
			<use xlink:href="#SVGID_29_"  overflow="visible"/>
		</clipPath>
		<path clip-path="url(#SVGID_30_)" fill="#29B76C" d="M679.54,383.241v31.162c0,1.112-0.761,1.874-1.734,1.874
			c-0.964,0-1.803-0.762-1.803-1.874v-31.162c0-1.113,0.762-1.874,1.803-1.874C678.779,381.367,679.54,382.128,679.54,383.241
			 M701.058,414.611c0,0.905-0.762,1.667-1.733,1.667c-0.482,0-0.896-0.14-1.176-0.485l-16.246-17.003
			c-0.349-0.419-0.55-0.906-0.55-1.32c0-0.486,0.201-0.974,0.626-1.32l14.435-14.295c0.347-0.346,0.762-0.485,1.176-0.485
			c0.976,0,1.735,0.761,1.735,1.661c0,0.486-0.135,0.974-0.482,1.254l-13.394,13.187l15.129,15.895
			C700.855,413.643,701.058,414.125,701.058,414.611"/>
	</g>
	<g>
		<defs>
			<rect id="SVGID_31_" x="-23.392" y="-60.062" width="1138.785" height="534.001"/>
		</defs>
		<clipPath id="SVGID_32_">
			<use xlink:href="#SVGID_31_"  overflow="visible"/>
		</clipPath>
		<path clip-path="url(#SVGID_32_)" fill="#29B76C" d="M737.106,394.554v19.99c0,0.973-0.772,1.733-1.744,1.733
			c-0.966,0-1.804-0.762-1.804-1.733v-3.956c-2.429,3.537-6.657,5.689-11.795,5.689c-6.869,0-11.522-3.676-11.522-9.092
			c0-5.481,4.577-8.957,11.659-8.957h11.658v-3.814c0-6.179-3.399-9.785-9.229-9.785c-3.537,0-6.524,1.455-9.232,4.51
			c-0.479,0.486-0.896,0.693-1.455,0.693c-0.838,0-1.6-0.693-1.6-1.455c0-0.486,0.212-0.975,0.762-1.601
			c3.056-3.607,7.082-5.409,11.736-5.409C732.384,381.367,737.106,386.296,737.106,394.554 M733.56,403.091v-1.874h-11.313
			c-5.416,0-8.394,2.149-8.394,5.897c0,3.681,3.258,6.108,8.259,6.108C728.491,413.224,733.56,408.714,733.56,403.091"/>
	</g>
	<g>
		<defs>
			<rect id="SVGID_33_" x="-23.392" y="-60.062" width="1138.785" height="534.001"/>
		</defs>
		<clipPath id="SVGID_34_">
			<use xlink:href="#SVGID_33_"  overflow="visible"/>
		</clipPath>
		<path clip-path="url(#SVGID_34_)" fill="#29B76C" d="M778.348,383.935v30.47c0,1.112-0.762,1.874-1.732,1.874
			c-1.041,0-1.803-0.762-1.803-1.874v-10.687h-10.83h-1.108l-10.34,11.934c-0.349,0.42-0.838,0.627-1.32,0.627
			c-0.973,0-1.734-0.762-1.734-1.733c0-0.419,0.137-0.768,0.481-1.182l9.164-10.345c-4.577-1.454-7.362-5.136-7.362-10.06
			c0-6.597,4.789-10.898,12.221-10.898h12.498C777.519,382.061,778.348,382.895,778.348,383.935 M774.813,385.25H764.26
			c-5.416,0-8.885,2.92-8.885,7.637c0,4.649,3.469,7.637,8.885,7.637h10.553V385.25z"/>
	</g>
	<g>
		<defs>
			<rect id="SVGID_35_" x="-23.392" y="-60.062" width="1138.785" height="534.001"/>
		</defs>
		<clipPath id="SVGID_36_">
			<use xlink:href="#SVGID_35_"  overflow="visible"/>
		</clipPath>
		<path clip-path="url(#SVGID_36_)" fill="#29B76C" d="M822.027,383.241v31.162c0,1.112-0.761,1.874-1.734,1.874
			c-0.964,0-1.802-0.762-1.802-1.874v-31.162c0-1.113,0.761-1.874,1.802-1.874C821.268,381.367,822.027,382.128,822.027,383.241
			 M843.546,414.611c0,0.905-0.763,1.667-1.733,1.667c-0.483,0-0.897-0.14-1.177-0.485l-16.246-17.003
			c-0.349-0.419-0.551-0.906-0.551-1.32c0-0.486,0.202-0.974,0.628-1.32l14.435-14.295c0.347-0.346,0.761-0.485,1.176-0.485
			c0.974,0,1.735,0.761,1.735,1.661c0,0.486-0.136,0.974-0.483,1.254l-13.394,13.187l15.13,15.895
			C843.344,413.643,843.546,414.125,843.546,414.611"/>
	</g>
	<g>
		<defs>
			<rect id="SVGID_37_" x="-23.392" y="-60.062" width="1138.785" height="534.001"/>
		</defs>
		<clipPath id="SVGID_38_">
			<use xlink:href="#SVGID_37_"  overflow="visible"/>
		</clipPath>
		<path clip-path="url(#SVGID_38_)" fill="#29B76C" d="M880.769,383.935v30.47c0,1.112-0.761,1.874-1.732,1.874
			c-0.976,0-1.735-0.762-1.735-1.874V385.25h-13.539v3.193c0,15.273-3.257,23.807-10.405,27.141
			c-0.561,0.279-1.107,0.415-1.601,0.415c-0.973,0-1.667-0.694-1.667-1.596c0-0.762,0.492-1.319,1.388-1.733
			c6.041-2.501,8.816-10.412,8.816-25.82v-2.915c0-1.04,0.762-1.874,1.879-1.874H878.9
			C879.941,382.061,880.769,382.895,880.769,383.935"/>
	</g>
	<g>
		<defs>
			<rect id="SVGID_39_" x="-23.392" y="-60.062" width="1138.785" height="534.001"/>
		</defs>
		<clipPath id="SVGID_40_">
			<use xlink:href="#SVGID_39_"  overflow="visible"/>
		</clipPath>
		<path clip-path="url(#SVGID_40_)" fill="#29B76C" d="M925.345,383.241v31.162c0,1.112-0.761,1.874-1.732,1.874
			c-0.975,0-1.735-0.762-1.735-1.874v-26.307l-20.544,27.206c-0.558,0.695-0.973,0.975-1.599,0.975
			c-0.897,0-1.735-0.762-1.735-1.874v-31.162c0-1.113,0.838-1.874,1.802-1.874c0.976,0,1.734,0.761,1.734,1.874v26.58l20.477-27.486
			c0.561-0.693,1.041-0.968,1.602-0.968C924.584,381.367,925.345,382.128,925.345,383.241"/>
	</g>
	<g>
		<defs>
			<rect id="SVGID_41_" x="-23.392" y="-60.062" width="1138.785" height="534.001"/>
		</defs>
		<clipPath id="SVGID_42_">
			<use xlink:href="#SVGID_41_"  overflow="visible"/>
		</clipPath>
		<path clip-path="url(#SVGID_42_)" fill="#29B76C" d="M969.017,383.102v31.442c0,0.973-0.763,1.733-1.733,1.733
			c-0.976,0-1.735-0.762-1.735-1.733v-15.408h-19.369v15.408c0,0.973-0.761,1.733-1.732,1.733c-0.963,0-1.804-0.762-1.804-1.733
			v-31.442c0-0.974,0.841-1.733,1.804-1.733c0.973,0,1.732,0.761,1.732,1.733v12.772h19.369v-12.772
			c0-0.974,0.694-1.733,1.735-1.733C968.254,381.367,969.017,382.128,969.017,383.102"/>
	</g>
	<g>
		<defs>
			<rect id="SVGID_43_" x="-23.392" y="-60.062" width="1138.785" height="534.001"/>
		</defs>
		<clipPath id="SVGID_44_">
			<use xlink:href="#SVGID_43_"  overflow="visible"/>
		</clipPath>
		<path clip-path="url(#SVGID_44_)" fill="#29B76C" d="M1013.604,383.241v31.162c0,1.112-0.764,1.874-1.734,1.874
			c-0.975,0-1.735-0.762-1.735-1.874v-26.307l-20.545,27.206c-0.558,0.695-0.972,0.975-1.598,0.975
			c-0.897,0-1.736-0.762-1.736-1.874v-31.162c0-1.113,0.839-1.874,1.803-1.874c0.975,0,1.734,0.761,1.734,1.874v26.58l20.477-27.486
			c0.561-0.693,1.04-0.968,1.602-0.968C1012.84,381.367,1013.604,382.128,1013.604,383.241"/>
	</g>
	<g>
		<defs>
			<rect id="SVGID_45_" x="-23.392" y="-60.062" width="1138.785" height="534.001"/>
		</defs>
		<clipPath id="SVGID_46_">
			<use xlink:href="#SVGID_45_"  overflow="visible"/>
		</clipPath>
		<path clip-path="url(#SVGID_46_)" fill="#29B76C" d="M1034.436,383.241v31.162c0,1.112-0.762,1.874-1.734,1.874
			c-0.964,0-1.802-0.762-1.802-1.874v-31.162c0-1.113,0.761-1.874,1.802-1.874C1033.674,381.367,1034.436,382.128,1034.436,383.241
			 M1055.952,414.611c0,0.905-0.762,1.667-1.734,1.667c-0.481,0-0.896-0.14-1.175-0.485l-16.247-17.003
			c-0.348-0.419-0.549-0.906-0.549-1.32c0-0.486,0.201-0.974,0.625-1.32l14.435-14.295c0.349-0.346,0.763-0.485,1.177-0.485
			c0.974,0,1.734,0.761,1.734,1.661c0,0.486-0.135,0.974-0.481,1.254l-13.395,13.187l15.129,15.895
			C1055.75,413.643,1055.952,414.125,1055.952,414.611"/>
	</g>
	<g>
		<defs>
			<rect id="SVGID_47_" x="-23.392" y="-60.062" width="1138.785" height="534.001"/>
		</defs>
		<clipPath id="SVGID_48_">
			<use xlink:href="#SVGID_47_"  overflow="visible"/>
		</clipPath>
		<path clip-path="url(#SVGID_48_)" fill="#29B76C" d="M1092.001,394.554v19.99c0,0.973-0.771,1.733-1.744,1.733
			c-0.965,0-1.803-0.762-1.803-1.733v-3.956c-2.429,3.537-6.657,5.689-11.795,5.689c-6.869,0-11.523-3.676-11.523-9.092
			c0-5.481,4.577-8.957,11.659-8.957h11.659v-3.814c0-6.179-3.4-9.785-9.229-9.785c-3.537,0-6.524,1.455-9.232,4.51
			c-0.48,0.486-0.896,0.693-1.455,0.693c-0.838,0-1.6-0.693-1.6-1.455c0-0.486,0.212-0.975,0.762-1.601
			c3.056-3.607,7.082-5.409,11.736-5.409C1087.278,381.367,1092.001,386.296,1092.001,394.554 M1088.454,403.091v-1.874h-11.313
			c-5.416,0-8.393,2.149-8.393,5.897c0,3.681,3.257,6.108,8.259,6.108C1083.387,413.224,1088.454,408.714,1088.454,403.091"/>
	</g>
	<g>
		<defs>
			<rect id="SVGID_49_" x="-23.392" y="-60.062" width="1138.785" height="534.001"/>
		</defs>
		<clipPath id="SVGID_50_">
			<use xlink:href="#SVGID_49_"  overflow="visible"/>
		</clipPath>
		<path clip-path="url(#SVGID_50_)" fill="#FFF200" d="M1087.222,218.667c-41.545,0-83.127,0-124.672-0.036l11.958-18.392
			c27.189-0.036,54.377-0.036,81.528-0.036c7.306,0,7.306,0,4.726-6.07c-19.047-44.853-38.093-89.67-57.14-134.523
			c-3.198-7.56-6.578-15.011-9.558-22.681c-1.199-3.089-1.893-3.089-4.108-0.036c-13.813,19.083-27.806,38.092-41.689,57.211
			c-20.102,27.625-40.129,55.357-60.229,83.019c-8.396,11.521-16.938,22.972-25.188,34.603c-1.345,1.854-2.436,2.363-4.289,2.363
			c-5.815-0.036-11.667,0-18.571,0c8.977-12.358,17.337-23.88,25.695-35.367c26.935-37.146,53.831-74.33,80.803-111.441
			c16.354-22.5,32.855-44.89,49.141-67.425c2.437-3.381,2.799-2.653,3.998,0.146c19.846,46.961,39.766,93.886,59.72,140.773
			c10.322,24.281,20.719,48.488,31.077,72.732C1092.493,218.341,1092.313,218.667,1087.222,218.667"/>
	</g>
	<g>
		<defs>
			<rect id="SVGID_51_" x="-23.392" y="-60.062" width="1138.785" height="534.001"/>
		</defs>
		<clipPath id="SVGID_52_">
			<use xlink:href="#SVGID_51_"  overflow="visible"/>
		</clipPath>
		<path clip-path="url(#SVGID_52_)" fill="#29B76C" d="M971.019,144.955c-51.214,70.514-101.771,140.12-153.021,210.707
			c-31.55-74.186-62.811-147.681-94.322-221.792H861.65c-4.072,5.634-7.962,10.686-11.486,15.92
			c-1.818,2.689-3.962,2.145-6.107,2.145c-28.388,0.036-56.737,0-85.09,0.072c-1.744,0.037-3.962-1.09-5.306,0.946
			c-1.163,1.708,0.688,3.016,1.308,4.434c15.559,36.893,31.188,73.713,46.816,110.568c6.687,15.666,13.594,31.224,20.1,46.998
			c1.527,3.708,2.581,2.581,4.543-0.146c17.592-24.243,35.258-48.487,52.887-72.73c22.861-31.515,45.979-62.846,68.369-94.648
			c0.618-0.873,1.273-1.709,1.892-2.472L971.019,144.955L971.019,144.955z"/>
	</g>
</g>
</svg>
